<svg id="Capa_1" data-name="Capa 1" xmlns="http://www.w3.org/2000/svg" viewBox="0 0 283.46 283.46"><defs><style>.cls-1{fill:#2f5ea9;}.cls-2{fill:#1d1d1b;}.cls-3{fill:#fff;}</style></defs><path class="cls-1" d="M170.22,257.15l-73-231.1a3.27,3.27,0,0,0-6.38,1V258.14a3.26,3.26,0,0,0,3.27,3.26h73A3.26,3.26,0,0,0,170.22,257.15Z"/><path class="cls-2" d="M28.66,163.1c60.16-10.62,166.26-42.68,176.55-137.26a3.94,3.94,0,0,1,5-3.61c12.39,3.93,42.29,21-13.59,88.6-44.5,53.85-120.33,61.76-167.39,60.81C24.41,171.54,23.93,163.93,28.66,163.1Z"/><path class="cls-2" d="M49.28,190.68C110,185.57,218.2,163.26,235.61,69.94a3.88,3.88,0,0,1,5.22-3.15c12,5,40.56,24.76-20.25,87.06C172.16,203.47,96,204.47,49.17,199.24,44.41,198.71,44.51,191.08,49.28,190.68Z"/><circle class="cls-3" cx="123.24" cy="226.17" r="24.26"/><path class="cls-1" d="M110.5,28l73,231.11a3.27,3.27,0,0,0,6.38-1V27a3.27,3.27,0,0,0-3.26-3.27h-73A3.27,3.27,0,0,0,110.5,28Z"/><circle class="cls-3" cx="157.49" cy="58.99" r="24.26"/></svg>